:FULLY-SPECIFIED
:FORCE-ALL-JOINTS-BE-3DOF
:DEGREES
204
root -2.90033 16.3091 -36.1129 3.7832 0.646692 -2.93596
lfemur -23.9271 6.69149 -8.24345
ltibia 48.6524 0 0
lfoot -23.7872 0.364766 0
ltoes -9.84745 0 0
rfemur -23.7707 -7.49134 14.6511
rtibia 50.6594 0 0
rfoot -27.6181 2.11115 0
rtoes -8.40927 0 0
lowerback 7.29953 1.94784 -1.69821
upperback -3.76634 2.53149 1.31599
thorax -8.21056 1.37118 1.97961
lowerneck -3.36742 -3.89976 -6.58543
upperneck 6.88593 -5.26827 6.06024
head 3.23667 -2.59453 2.98086
lclavicle -1.00468e-14 -7.04921e-15 0
lhumerus -26.5484 -1.84029 88.8143
lradius 24.3425 0 0
lwrist -31.2921 0 0
lhand -28.2909 30.0239 0
lfingers 7.12502 0 0
lthumb -1.64007 60.1502 0
rclavicle 9.37083e-15 8.94531e-16 0
rhumerus -32.2318 1.99614 -79.9304
rradius 30.2945 0 0
rwrist 3.18283 0 0
rhand -19.9441 -26.9278 0
rfingers 7.12502 0 0
rthumb 6.50385 -56.8665 0
205
root -2.90076 16.3075 -36.1111 3.77155 0.653511 -2.90154
lfemur -23.9358 6.69726 -8.24028
ltibia 48.6879 0 0
lfoot -23.8091 0.35722 0
ltoes -9.84801 0 0
rfemur -23.7751 -7.50476 14.6495
rtibia 50.7002 0 0
rfoot -27.6382 2.0897 0
rtoes -8.43347 0 0
lowerback 7.29923 1.95169 -1.72821
upperback -3.75822 2.53231 1.30223
thorax -8.20242 1.37263 1.98192
lowerneck -3.42443 -3.90966 -6.55163
upperneck 6.92512 -5.27961 6.02983
head 3.25922 -2.59935 2.96279
lclavicle -9.12856e-15 -6.95746e-15 0
lhumerus -26.5379 -1.85218 88.8274
lradius 24.3487 0 0
lwrist -31.2901 0 0
lhand -28.2943 30.0173 0
lfingers 7.12502 0 0
lthumb -1.64331 60.1421 0
rclavicle 9.74997e-15 1.11319e-15 0
rhumerus -32.2187 2.00814 -79.9437
rradius 30.2878 0 0
rwrist 3.19051 0 0
rhand -19.9464 -26.9335 0
rfingers 7.12502 0 0
rthumb 6.50689 -56.8765 0
206
root -2.90138 16.305 -36.1106 3.76868 0.66911 -2.9246
lfemur -23.9444 6.70302 -8.23711
ltibia 48.7235 0 0
lfoot -23.831 0.349674 0
ltoes -9.84857 0 0
rfemur -23.7795 -7.51818 14.648
rtibia 50.741 0 0
rfoot -27.6583 2.06826 0
rtoes -8.45766 0 0
lowerback 7.29131 1.95374 -1.69565
upperback -3.74773 2.53866 1.30361
thorax -8.18527 1.37379 1.96455
lowerneck -3.43602 -3.91994 -6.54011
upperneck 6.9053 -5.29236 6.02499
head 3.25484 -2.60532 2.95808
lclavicle -8.09844e-15 -6.4605e-15 0
lhumerus -26.5274 -1.86408 88.8404
lradius 24.3548 0 0
lwrist -31.2882 0 0
lhand -28.2976 30.0107 0
lfingers 7.12502 0 0
lthumb -1.64654 60.1341 0
rclavicle 1.01291e-14 1.33186e-15 0
rhumerus -32.2194 1.99922 -79.9341
rradius 30.2811 0 0
rwrist 3.19818 0 0
rhand -19.9486 -26.9392 0
rfingers 7.12502 0 0
rthumb 6.50993 -56.8864 0
207
root -2.90215 16.303 -36.1086 3.76247 0.674298 -2.90984
lfemur -23.9531 6.70879 -8.23394
ltibia 48.759 0 0
lfoot -23.8529 0.342129 0
ltoes -9.84913 0 0
rfemur -23.7839 -7.53161 14.6465
rtibia 50.7818 0 0
rfoot -27.6785 2.04681 0
rtoes -8.48186 0 0
lowerback 7.27704 1.94759 -1.7196
upperback -3.74702 2.52857 1.31085
thorax -8.17719 1.37036 1.98757
lowerneck -3.44052 -3.89992 -6.56686
upperneck 6.92316 -5.26432 6.02696
head 3.261 -2.59202 2.9652
lclavicle -7.06831e-15 -5.96354e-15 0
lhumerus -26.5169 -1.87597 88.8534
lradius 24.361 0 0
lwrist -31.2863 0 0
lhand -28.301 30.0041 0
lfingers 7.12502 0 0
lthumb -1.64977 60.126 0
rclavicle 1.05082e-14 1.55052e-15 0
rhumerus -32.22 1.99031 -79.9246
rradius 30.2745 0 0
rwrist 3.20586 0 0
rhand -19.9509 -26.9448 0
rfingers 7.12502 0 0
rthumb 6.51297 -56.8964 0
